<svg width="399" height="394" viewBox="0 0 399 394" fill="none" xmlns="http://www.w3.org/2000/svg">
<g filter="url(#filter0_f_228_16)">
<path d="M253 206.683C253 211.539 251.915 215.947 249.746 219.908C247.321 224.636 243.621 227 238.644 227C233.795 227 229.52 223.039 225.819 215.117C224.288 212.178 222.246 205.789 219.694 195.95C214.717 205.661 209.23 213.264 203.233 218.758C197.363 224.253 189.578 227 179.88 227C170.182 227 162.079 222.975 155.571 214.925C149.19 206.747 146 197.419 146 186.942C146 173.397 149.254 161.706 155.762 151.867C163.163 140.622 173.372 135 186.388 135C204.509 135 214.462 146.5 216.249 169.5L228.691 137.3H248.215L222.948 190.775C224.352 195.631 226.776 199.975 230.222 203.808C233.667 207.514 237.432 209.367 241.515 209.367C245.599 209.367 249.299 206.939 252.617 202.083C252.872 203.872 253 205.406 253 206.683ZM211.846 176.208C211.846 168.669 210.06 162.153 206.487 156.658C202.02 150.269 196.342 147.075 189.451 147.075C180.391 147.075 173.117 152.697 167.63 163.942C163.036 173.142 160.739 182.725 160.739 192.692C160.739 211.603 166.226 221.058 177.2 221.058C184.091 221.058 191.556 215.053 199.596 203.042C207.763 190.903 211.846 181.958 211.846 176.208Z" fill="#6A2CF2"/>
</g>
<g filter="url(#filter1_f_228_16)">
<path d="M253 206.683C253 211.539 251.915 215.947 249.746 219.908C247.321 224.636 243.621 227 238.644 227C233.795 227 229.52 223.039 225.819 215.117C224.288 212.178 222.246 205.789 219.694 195.95C214.717 205.661 209.23 213.264 203.233 218.758C197.363 224.253 189.578 227 179.88 227C170.182 227 162.079 222.975 155.571 214.925C149.19 206.747 146 197.419 146 186.942C146 173.397 149.254 161.706 155.762 151.867C163.163 140.622 173.372 135 186.388 135C204.509 135 214.462 146.5 216.249 169.5L228.691 137.3H248.215L222.948 190.775C224.352 195.631 226.776 199.975 230.222 203.808C233.667 207.514 237.432 209.367 241.515 209.367C245.599 209.367 249.299 206.939 252.617 202.083C252.872 203.872 253 205.406 253 206.683ZM211.846 176.208C211.846 168.669 210.06 162.153 206.487 156.658C202.02 150.269 196.342 147.075 189.451 147.075C180.391 147.075 173.117 152.697 167.63 163.942C163.036 173.142 160.739 182.725 160.739 192.692C160.739 211.603 166.226 221.058 177.2 221.058C184.091 221.058 191.556 215.053 199.596 203.042C207.763 190.903 211.846 181.958 211.846 176.208Z" fill="#EDE6FF"/>
</g>
<path d="M227.991 137.03L216.691 166.275C215.526 156.243 212.656 148.502 208.011 143.134C202.864 137.188 195.62 134.25 186.388 134.25C173.11 134.25 162.67 140.008 155.136 151.454C148.536 161.433 145.25 173.273 145.25 186.942C145.25 197.585 148.495 207.075 154.979 215.386L154.979 215.386L154.987 215.397C161.627 223.609 169.938 227.75 179.88 227.75C189.726 227.75 197.706 224.957 203.742 219.309C209.46 214.07 214.696 206.965 219.46 198.017C221.779 206.776 223.673 212.613 225.147 215.449C228.866 223.405 233.324 227.75 238.644 227.75C241.256 227.75 243.569 227.128 245.556 225.859C247.537 224.594 249.149 222.713 250.409 220.26C252.64 216.182 253.75 211.652 253.75 206.683C253.75 205.359 253.618 203.788 253.36 201.977L253.087 200.066L251.998 201.66C248.754 206.408 245.253 208.617 241.515 208.617C237.69 208.617 234.114 206.891 230.775 203.302C227.471 199.624 225.13 195.471 223.748 190.837L248.893 137.62L249.399 136.55H248.215H228.691H228.176L227.991 137.03ZM168.301 164.277L168.301 164.277L168.304 164.271C173.721 153.17 180.785 147.825 189.451 147.825C196.058 147.825 201.519 150.866 205.865 157.078C209.343 162.431 211.096 168.797 211.096 176.208C211.096 178.925 210.126 182.483 208.101 186.918C206.083 191.339 203.044 196.573 198.973 202.623L198.972 202.624C194.976 208.596 191.149 213.032 187.497 215.97C183.847 218.907 180.419 220.308 177.2 220.308C171.979 220.308 168.112 218.086 165.503 213.59C162.858 209.033 161.489 202.099 161.489 192.692C161.489 182.845 163.757 173.376 168.301 164.277Z" fill="#050010" stroke="#EDE6FF" stroke-width="1.5"/>
<g filter="url(#filter2_f_228_16)">
<path d="M358 287.573V353H231.495V305.822C281.375 275.853 306.315 231.939 306.315 174.078C306.315 143.813 296.799 116.367 277.766 91.739C258.732 67.1113 233.136 54.7974 200.977 54.7974C164.223 54.7974 136.986 66.0728 119.266 88.6234C101.545 111.174 92.6848 139.214 92.6848 172.743C92.6848 205.976 98.2635 232.384 109.421 251.967C120.578 271.254 140.924 289.205 170.458 305.822V353H41V287.573H54.2904C54.9467 293.211 56.2593 300.184 58.2283 308.492C60.8535 313.536 68.2371 316.059 80.3789 316.059H154.707V310.272C116.312 295.437 88.2547 278.524 70.5342 259.534C51.1729 237.576 41.4922 207.904 41.4922 170.518C41.4922 132.835 56.9156 101.827 87.7624 77.4964C118.937 53.1655 156.511 41 200.484 41C244.786 41 282.032 53.3138 312.222 77.9415C342.413 102.272 357.508 134.021 357.508 173.188C357.508 236.983 320.754 282.678 247.247 310.272V316.059H318.621C330.763 316.059 338.311 313.536 341.264 308.492L345.694 287.573H358Z" fill="#6A2CF2"/>
</g>
<g filter="url(#filter3_f_228_16)">
<path d="M358 287.573V353H231.495V305.822C281.375 275.853 306.315 231.939 306.315 174.078C306.315 143.813 296.799 116.367 277.766 91.739C258.732 67.1113 233.136 54.7974 200.977 54.7974C164.223 54.7974 136.986 66.0728 119.266 88.6234C101.545 111.174 92.6848 139.214 92.6848 172.743C92.6848 205.976 98.2635 232.384 109.421 251.967C120.578 271.254 140.924 289.205 170.458 305.822V353H41V287.573H54.2904C54.9467 293.211 56.2593 300.184 58.2283 308.492C60.8535 313.536 68.2371 316.059 80.3789 316.059H154.707V310.272C116.312 295.437 88.2547 278.524 70.5342 259.534C51.1729 237.576 41.4922 207.904 41.4922 170.518C41.4922 132.835 56.9156 101.827 87.7624 77.4964C118.937 53.1655 156.511 41 200.484 41C244.786 41 282.032 53.3138 312.222 77.9415C342.413 102.272 357.508 134.021 357.508 173.188C357.508 236.983 320.754 282.678 247.247 310.272V316.059H318.621C330.763 316.059 338.311 313.536 341.264 308.492L345.694 287.573H358Z" fill="#E2DAF2"/>
</g>
<path d="M108.769 252.338L108.772 252.343C119.974 271.707 140.319 289.669 169.708 306.26V352.25H41.75V288.323H53.6249C54.3091 293.88 55.6019 300.662 57.4985 308.665L57.52 308.756L57.563 308.838C58.9933 311.587 61.6871 313.577 65.4924 314.877C69.2931 316.175 74.2661 316.809 80.3789 316.809H154.707H155.457V316.059V310.272V309.758L154.977 309.573C116.638 294.758 88.7011 277.899 71.0897 259.03C51.8844 237.245 42.2422 207.769 42.2422 170.518C42.2422 133.076 57.551 102.282 88.2253 78.0866C119.253 53.8708 156.659 41.75 200.484 41.75C244.638 41.75 281.71 54.019 311.748 78.5227L311.751 78.5255C341.763 102.712 356.758 134.246 356.758 173.188C356.758 204.931 347.618 232.133 329.358 254.835C311.089 277.548 283.652 295.805 246.983 309.57L246.497 309.753V310.272V316.059V316.809H247.247H318.621C324.735 316.809 329.746 316.175 333.626 314.878C337.509 313.581 340.314 311.599 341.911 308.871L341.973 308.766L341.998 308.648L346.302 288.323H357.25V352.25H232.245V306.246C282.107 276.147 307.065 232.063 307.065 174.078C307.065 143.642 297.49 116.035 278.359 91.2803C259.178 66.4619 233.359 54.0474 200.977 54.0474C164.064 54.0474 136.577 65.3793 118.676 88.16C100.835 110.864 91.9348 139.076 91.9348 172.743C91.9348 206.048 97.5239 232.601 108.769 252.338Z" fill="#050010" stroke="#E2DAF2" stroke-width="1.5"/>
<defs>
<filter id="filter0_f_228_16" x="119" y="108" width="161" height="146" filterUnits="userSpaceOnUse" color-interpolation-filters="sRGB">
<feFlood flood-opacity="0" result="BackgroundImageFix"/>
<feBlend mode="normal" in="SourceGraphic" in2="BackgroundImageFix" result="shape"/>
<feGaussianBlur stdDeviation="13.5" result="effect1_foregroundBlur_228_16"/>
</filter>
<filter id="filter1_f_228_16" x="135" y="124" width="129" height="114" filterUnits="userSpaceOnUse" color-interpolation-filters="sRGB">
<feFlood flood-opacity="0" result="BackgroundImageFix"/>
<feBlend mode="normal" in="SourceGraphic" in2="BackgroundImageFix" result="shape"/>
<feGaussianBlur stdDeviation="5.5" result="effect1_foregroundBlur_228_16"/>
</filter>
<filter id="filter2_f_228_16" x="0" y="0" width="399" height="394" filterUnits="userSpaceOnUse" color-interpolation-filters="sRGB">
<feFlood flood-opacity="0" result="BackgroundImageFix"/>
<feBlend mode="normal" in="SourceGraphic" in2="BackgroundImageFix" result="shape"/>
<feGaussianBlur stdDeviation="20.5" result="effect1_foregroundBlur_228_16"/>
</filter>
<filter id="filter3_f_228_16" x="32" y="32" width="335" height="330" filterUnits="userSpaceOnUse" color-interpolation-filters="sRGB">
<feFlood flood-opacity="0" result="BackgroundImageFix"/>
<feBlend mode="normal" in="SourceGraphic" in2="BackgroundImageFix" result="shape"/>
<feGaussianBlur stdDeviation="4.5" result="effect1_foregroundBlur_228_16"/>
</filter>
</defs>
</svg>
